# xmcd CD database file
#
# Track frame offsets:
#	150
#	15127
#	28495
#	40757
#	54442
#	68875
#	83667
#	97257
#	117900
#	134845
#	144505
#	159190
#	171597
#	183635
#	196327
#
# Disc length: 3602 seconds
#
# Revision: 2
# Processed by: cddbd v1.5.2PL0 Copyright (c) Steve Scherf et al.
# Submitted via: CDex 1.92
#
DISCID=d30e100f
DTITLE=1000 Takte - Super - Stimmung:
DYEAR=1995
DGENRE=Schlager
TTITLE0=dfkjedfjk
TTITLE1=dfbhgfjnh
TTITLE2=jfzjhgmj
TTITLE3=hjghm
TTITLE4=ghjuz
TTITLE5=klj,khj,hj,
TTITLE6=1000 Takte Super - Stimmung: - bdfbnn
TTITLE7=1000 Takte Super - Stimmung: - ngfndn
TTITLE8=1000 Takte Super - Stimmung: - gndndn
TTITLE9=1000 Takte Super - Stimmung: - nghnhgn
TTITLE10=1000 Takte Super - Stimmung: - grergerg
TTITLE11=1000 Takte Super - Stimmung: - gregerg
TTITLE12=1000 Takte Super - Stimmung: - reggger
TTITLE13=1000 Takte Super - Stimmung: - gsdghzj
TTITLE14=1000 Takte Super - Stimmung: - dasfrehtrj
EXTD=YEAR: 1995
EXTT0=
EXTT1=
EXTT2=
EXTT3=
EXTT4=
EXTT5=
EXTT6=
EXTT7=
EXTT8=
EXTT9=
EXTT10=
EXTT11=
EXTT12=
EXTT13=
EXTT14=
PLAYORDER=
